<svg id="Layer_1" data-name="Layer 1" xmlns="http://www.w3.org/2000/svg" viewBox="0 0 115.51 122.88"><title>heater</title><path d="M9.39,40.32h96.73a9.41,9.41,0,0,1,9.39,9.38v54.81a9.41,9.41,0,0,1-9.39,9.38H94.84V122a.92.92,0,0,1-.92.92H85.35a.93.93,0,0,1-.93-.92v-8.07H31.08V122a.92.92,0,0,1-.92.92H21.59a.93.93,0,0,1-.93-.92v-8.07H9.39A9.39,9.39,0,0,1,0,104.51V49.7a9.39,9.39,0,0,1,9.39-9.38ZM24.66,2.79A2.08,2.08,0,0,1,26.25.11a2.64,2.64,0,0,1,3.17,1.33c3,7.54.85,12.88-1.05,17.58-1.64,4-3,7.49.63,11.38a1.89,1.89,0,0,1-.42,3A2.86,2.86,0,0,1,25.05,33c-5.37-5.71-3.57-10.16-1.46-15.36C25.26,13.59,27.14,9,24.66,2.79ZM72,2.78A2.06,2.06,0,0,1,73.58.11a2.64,2.64,0,0,1,3.18,1.33C79.76,9,77.6,14.32,75.7,19c-1.63,4-3,7.49.63,11.38a1.89,1.89,0,0,1-.42,3A2.84,2.84,0,0,1,72.38,33C67,27.3,68.81,22.85,70.92,17.64,72.59,13.59,74.45,9,72,2.78Zm15.75,0A2.06,2.06,0,0,1,89.33.12a2.64,2.64,0,0,1,3.18,1.32c3,7.55.84,12.89-1.06,17.58-1.63,4-3,7.49.63,11.38a1.89,1.89,0,0,1-.42,3A2.86,2.86,0,0,1,88.13,33c-5.37-5.7-3.57-10.16-1.46-15.36,1.67-4,3.54-8.68,1.08-14.86Zm-47.33,0A2.06,2.06,0,0,1,42,.11a2.64,2.64,0,0,1,3.18,1.33C48.18,9,46,14.32,44.12,19c-1.63,4-3,7.49.63,11.38a1.89,1.89,0,0,1-.42,3A2.84,2.84,0,0,1,40.8,33c-5.37-5.7-3.57-10.15-1.46-15.36C41,13.59,42.87,9,40.42,2.78Zm15.75,0A2.06,2.06,0,0,1,57.75.12a2.64,2.64,0,0,1,3.18,1.32c3,7.55.84,12.89-1.06,17.58-1.63,4-3,7.49.63,11.38a1.89,1.89,0,0,1-.42,3A2.86,2.86,0,0,1,56.55,33c-5.37-5.7-3.57-10.16-1.46-15.36,1.67-4,3.54-8.68,1.08-14.86Zm38,50.37a2.77,2.77,0,0,1,5.53,0v48.13a2.77,2.77,0,1,1-5.53,0V53.16Zm-15.63,0a2.77,2.77,0,0,1,5.53,0v48.13a2.77,2.77,0,1,1-5.53,0V53.16Zm-15.63,0a2.77,2.77,0,0,1,5.53,0v48.13a2.77,2.77,0,1,1-5.53,0V53.16Zm-15.63,0a2.77,2.77,0,0,1,5.53,0v48.13a2.77,2.77,0,1,1-5.53,0V53.16Zm-15.63,0a2.76,2.76,0,0,1,5.52,0v48.13a2.76,2.76,0,1,1-5.52,0V53.16ZM16,53.16a2.76,2.76,0,1,1,5.52,0v48.13a2.76,2.76,0,1,1-5.52,0V53.16Zm90.08-7.5H9.39a4.06,4.06,0,0,0-4,4v54.81a4.06,4.06,0,0,0,4,4h96.73a4.06,4.06,0,0,0,4-4V49.7a4.06,4.06,0,0,0-4-4Z"/></svg>