<?xml version="1.0" encoding="iso-8859-1"?>
<!-- Generator: Adobe Illustrator 19.0.0, SVG Export Plug-In . SVG Version: 6.00 Build 0)  -->
<svg version="1.1" id="Layer_1" xmlns="http://www.w3.org/2000/svg" xmlns:xlink="http://www.w3.org/1999/xlink" x="0px" y="0px"
	 viewBox="0 0 512 512" style="enable-background:new 0 0 512 512;" xml:space="preserve">
<g>
	<g>
		<path d="M442.453,0H69.547C31.154,0.041,0.041,31.154,0,69.547v372.907C0.041,480.846,31.154,511.959,69.547,512h372.907
			c38.393-0.041,69.505-31.154,69.547-69.547V69.547C511.959,31.154,480.846,0.041,442.453,0z M490.667,442.453
			c-0.029,26.615-21.598,48.184-48.213,48.213H69.547c-26.615-0.029-48.184-21.598-48.213-48.213V69.547
			c0.029-26.615,21.598-48.184,48.213-48.213h372.907c26.615,0.029,48.184,21.598,48.213,48.213V442.453z"/>
	</g>
</g>
<g>
	<g>
		<path d="M170.667,213.333C147.103,213.333,128,232.436,128,256s19.103,42.667,42.667,42.667s42.667-19.103,42.667-42.667
			S194.231,213.333,170.667,213.333z M170.667,277.333c-11.782,0-21.333-9.551-21.333-21.333c0-11.782,9.551-21.333,21.333-21.333
			c11.782,0,21.333,9.551,21.333,21.333C192,267.782,182.449,277.333,170.667,277.333z"/>
	</g>
</g>
<g>
	<g>
		<path d="M256,53.333C144.245,53.333,53.333,144.245,53.333,256S144.245,458.667,256,458.667S458.667,367.755,458.667,256
			S367.755,53.333,256,53.333z M266.667,436.789v-10.123c0-5.891-4.776-10.667-10.667-10.667c-5.891,0-10.667,4.776-10.667,10.667
			v10.123C150.315,431.221,74.667,352.384,74.667,256S150.315,80.779,245.333,75.211V96c0,5.891,4.776,10.667,10.667,10.667
			c5.891,0,10.667-4.776,10.667-10.667V75.211C361.685,80.779,437.333,159.616,437.333,256S361.685,431.221,266.667,436.789z"/>
	</g>
</g>
<g>
	<g>
		<path d="M341.333,213.333c-23.564,0-42.667,19.102-42.667,42.667s19.102,42.667,42.667,42.667
			C364.898,298.667,384,279.564,384,256S364.898,213.333,341.333,213.333z M341.333,277.333C329.551,277.333,320,267.782,320,256
			c0-11.782,9.551-21.333,21.333-21.333c11.782,0,21.333,9.551,21.333,21.333C362.667,267.782,353.115,277.333,341.333,277.333z"/>
	</g>
</g>
<g>
</g>
<g>
</g>
<g>
</g>
<g>
</g>
<g>
</g>
<g>
</g>
<g>
</g>
<g>
</g>
<g>
</g>
<g>
</g>
<g>
</g>
<g>
</g>
<g>
</g>
<g>
</g>
<g>
</g>
</svg>
