<?xml version="1.0" standalone="no"?>
<!DOCTYPE svg PUBLIC "-//W3C//DTD SVG 20010904//EN"
 "http://www.w3.org/TR/2001/REC-SVG-20010904/DTD/svg10.dtd">
<svg version="1.0" xmlns="http://www.w3.org/2000/svg"
 width="3480.000000pt" height="3480.000000pt" viewBox="0 0 3480.000000 3480.000000"
 preserveAspectRatio="xMidYMid meet">
<metadata>
Created by potrace 1.15, written by Peter Selinger 2001-2017
</metadata>
<g transform="translate(0.000000,3480.000000) scale(0.100000,-0.100000)"
fill="#000000" stroke="none">
<path d="M17535 33553 c-307 -16 -576 -36 -655 -48 -52 -9 -138 -20 -190 -25
-52 -6 -115 -14 -140 -19 -25 -5 -99 -18 -165 -30 -66 -12 -156 -30 -200 -40
-44 -10 -107 -24 -140 -31 -33 -7 -95 -23 -138 -36 -43 -13 -92 -24 -110 -24
-18 0 -49 -9 -70 -20 -20 -11 -45 -20 -56 -20 -35 0 -235 -62 -260 -81 -14
-10 -79 -32 -144 -49 -65 -17 -128 -36 -140 -44 -12 -8 -41 -17 -65 -21 -61
-10 -246 -71 -318 -106 -34 -16 -65 -29 -69 -29 -9 0 -133 -57 -386 -179 -59
-28 -112 -51 -117 -51 -6 0 -23 -11 -39 -24 -16 -13 -49 -29 -73 -36 -25 -7
-119 -48 -210 -92 -282 -137 -364 -180 -388 -201 -17 -16 -101 -64 -157 -90
-16 -8 -39 -24 -49 -36 -11 -11 -24 -21 -31 -21 -7 0 -20 -9 -30 -20 -10 -11
-27 -22 -38 -26 -11 -4 -59 -33 -105 -65 -47 -33 -90 -59 -95 -59 -6 0 -34
-18 -63 -40 -29 -22 -55 -40 -58 -40 -12 0 -228 -162 -260 -194 -27 -28 -178
-146 -242 -191 -28 -19 -85 -64 -127 -100 -42 -36 -79 -65 -83 -65 -6 0 -74
-59 -208 -180 -148 -133 -463 -446 -549 -544 -49 -55 -135 -153 -192 -216
-244 -273 -417 -471 -448 -513 -17 -25 -59 -81 -92 -125 -33 -44 -68 -92 -77
-108 -10 -16 -37 -52 -60 -81 -37 -45 -61 -78 -138 -197 -8 -13 -39 -58 -67
-100 -29 -42 -53 -79 -53 -83 0 -4 -10 -17 -21 -29 -24 -26 -37 -47 -69 -114
-12 -25 -29 -52 -36 -61 -17 -19 -53 -86 -128 -239 -31 -63 -61 -122 -66 -130
-10 -17 -37 -70 -74 -150 -14 -30 -30 -62 -36 -70 -8 -14 -50 -105 -71 -155
-30 -74 -51 -123 -60 -139 -6 -10 -33 -79 -60 -155 -28 -75 -59 -156 -71 -181
-11 -24 -35 -92 -54 -150 -19 -58 -41 -119 -49 -137 -8 -17 -15 -35 -15 -40 0
-5 -24 -83 -53 -173 -30 -91 -59 -187 -65 -215 -60 -269 -69 -303 -83 -321 -5
-6 -14 -42 -19 -80 -6 -38 -14 -89 -19 -114 -33 -168 -47 -244 -66 -372 -9
-58 -22 -132 -30 -163 -8 -31 -15 -84 -15 -118 0 -34 -4 -78 -9 -97 -5 -19
-14 -82 -21 -140 -6 -58 -20 -175 -30 -260 -11 -85 -24 -261 -30 -390 -5 -129
-15 -327 -20 -440 -11 -221 -22 -486 -45 -1085 -18 -477 -33 -784 -45 -945 -6
-69 -10 -174 -10 -235 0 -104 -28 -774 -50 -1175 -5 -102 -14 -297 -20 -435
-6 -137 -15 -317 -21 -400 -5 -82 -12 -242 -14 -355 -3 -113 -9 -259 -15 -325
-5 -66 -17 -307 -25 -535 -16 -403 -15 -417 3 -489 14 -54 17 -84 11 -110 -5
-20 -11 -124 -14 -231 -3 -107 -14 -413 -25 -680 -19 -482 -31 -761 -50 -1270
-13 -336 -30 -934 -35 -1245 -6 -417 -15 -687 -26 -779 -5 -50 -9 -261 -8
-470 1 -367 -7 -832 -15 -845 -5 -7 -22 -2404 -19 -2546 1 -49 7 -198 13 -330
6 -132 12 -276 13 -320 5 -160 28 -522 38 -590 6 -38 14 -108 19 -155 18 -183
51 -446 60 -475 5 -16 12 -57 16 -90 3 -33 15 -94 26 -135 10 -41 25 -122 33
-180 13 -95 28 -162 80 -375 10 -38 21 -90 24 -115 4 -25 12 -61 19 -80 6 -19
21 -69 33 -110 31 -107 80 -253 88 -265 4 -5 18 -44 31 -85 13 -41 29 -84 36
-95 6 -11 22 -51 34 -90 13 -38 26 -74 30 -80 4 -5 11 -26 15 -45 4 -19 13
-42 19 -50 7 -8 18 -31 26 -50 21 -59 40 -99 49 -104 5 -3 12 -17 15 -31 4
-14 24 -51 46 -83 22 -31 40 -61 40 -65 0 -5 17 -45 38 -90 22 -45 45 -98 52
-117 7 -19 23 -46 35 -60 13 -14 28 -43 35 -65 13 -41 28 -73 73 -160 14 -27
44 -86 67 -130 22 -44 45 -87 50 -95 6 -8 19 -35 30 -60 11 -25 25 -54 32 -65
16 -26 86 -135 134 -209 44 -68 79 -124 91 -146 12 -22 109 -159 146 -206 72
-92 117 -154 117 -162 0 -5 9 -17 20 -27 11 -10 20 -23 20 -30 0 -7 10 -20 21
-31 12 -10 56 -62 97 -114 42 -52 106 -129 142 -172 36 -42 77 -96 92 -120 15
-24 80 -102 145 -172 65 -71 125 -140 134 -155 19 -31 481 -501 493 -501 4 0
31 -21 60 -46 28 -26 63 -52 77 -58 15 -6 47 -34 72 -61 24 -28 71 -68 103
-90 33 -22 108 -86 169 -143 60 -57 126 -112 145 -122 19 -10 48 -32 65 -49
16 -18 41 -38 55 -45 14 -7 48 -25 76 -39 27 -14 58 -35 69 -47 10 -11 23 -20
30 -20 6 0 24 -13 40 -30 16 -16 34 -30 40 -30 6 0 22 -11 35 -25 13 -14 29
-25 35 -25 7 0 29 -14 50 -30 21 -17 42 -30 46 -30 5 0 28 -14 51 -30 22 -17
45 -30 50 -30 5 0 29 -13 53 -30 24 -16 46 -30 50 -30 3 0 21 -11 39 -25 18
-14 36 -25 41 -25 15 0 140 -64 161 -82 11 -10 45 -31 75 -46 30 -16 95 -50
144 -76 132 -71 170 -90 275 -141 99 -49 166 -84 203 -107 12 -8 45 -22 72
-32 28 -11 55 -22 60 -27 6 -4 29 -12 50 -18 74 -18 241 -79 300 -110 33 -17
63 -31 68 -31 4 0 20 -8 35 -19 27 -18 146 -60 292 -101 137 -38 155 -44 165
-51 6 -4 55 -18 110 -33 55 -14 143 -37 195 -51 194 -53 286 -75 310 -75 14 0
35 -6 46 -14 11 -8 72 -24 135 -35 63 -12 130 -26 149 -31 19 -6 96 -22 170
-35 74 -14 158 -29 185 -34 129 -26 155 -30 230 -36 44 -3 96 -10 115 -15 19
-5 89 -14 155 -20 66 -6 165 -16 220 -22 156 -16 172 -17 475 -23 157 -3 294
-8 304 -10 10 -2 125 3 255 11 427 27 622 44 776 68 50 8 117 17 150 21 33 3
107 17 165 31 58 13 150 31 205 39 55 8 145 24 200 35 55 12 145 30 200 40
117 21 281 59 415 96 52 14 113 30 135 36 22 5 49 15 60 22 11 7 35 17 52 20
17 4 37 14 44 22 6 8 17 14 24 14 7 0 18 7 25 16 20 23 77 44 121 44 66 0 145
36 184 85 l36 43 84 3 c75 4 87 7 112 32 19 17 40 27 59 27 50 0 132 29 260
91 67 32 126 59 131 59 5 0 30 11 54 25 57 32 181 91 211 100 13 4 34 15 48
25 14 10 57 33 95 52 39 19 86 45 105 56 19 12 49 28 66 36 17 8 35 19 38 25
4 6 22 18 39 26 18 8 48 25 69 37 20 13 61 37 91 55 31 18 58 37 62 42 3 6 25
19 48 29 23 10 82 45 130 78 49 32 106 68 126 79 21 11 52 33 70 48 18 15 38
27 44 27 7 0 35 20 64 45 28 25 55 45 61 45 5 0 17 10 28 21 10 12 40 36 65
53 25 17 94 76 153 131 59 55 119 105 134 110 81 30 239 159 501 410 306 293
601 606 615 652 4 12 43 54 86 93 44 40 80 76 80 82 0 5 45 58 99 117 54 60
116 135 137 167 21 32 64 89 96 126 32 36 58 69 58 73 0 3 20 32 45 63 63 80
76 100 115 162 19 30 56 83 82 116 26 34 48 64 48 66 0 3 26 45 58 94 32 49
71 114 86 144 35 70 45 87 77 130 28 37 88 148 175 317 28 57 63 118 76 135
14 18 31 51 38 72 7 21 33 78 57 125 25 47 53 106 63 131 10 25 29 70 43 100
52 114 65 146 71 175 10 42 74 205 92 233 8 12 19 48 25 80 6 31 16 75 24 97
7 22 19 67 25 100 7 33 28 102 46 153 19 51 34 109 34 129 0 19 4 52 10 72 9
34 34 150 65 306 8 39 24 115 36 170 27 132 57 306 75 430 7 55 23 165 35 245
24 168 23 155 45 459 15 193 15 241 5 280 -10 37 -14 1749 -18 8591 -4 7160
-7 8563 -19 8655 -12 101 -19 135 -45 250 -5 22 -14 72 -19 110 -4 39 -14 83
-20 100 -11 28 -43 175 -61 278 -4 27 -15 72 -23 100 -8 29 -27 96 -41 150
-14 55 -30 106 -35 115 -4 10 -25 73 -45 142 -20 69 -41 129 -46 135 -5 5 -9
17 -9 26 0 16 -80 230 -101 272 -6 10 -21 50 -35 90 -15 40 -39 100 -55 135
-16 35 -29 66 -29 69 0 4 -6 14 -13 22 -8 9 -20 37 -27 64 -7 26 -16 50 -20
52 -8 5 -70 129 -70 140 0 4 -8 19 -19 33 -10 15 -22 38 -26 50 -4 13 -19 43
-33 65 -48 75 -52 82 -63 107 -21 49 -67 135 -100 185 -10 17 -28 48 -39 71
-10 22 -28 49 -40 59 -11 10 -20 22 -20 27 0 5 -20 38 -45 74 -25 35 -45 68
-45 74 0 5 -13 25 -30 43 -16 19 -30 38 -30 42 0 5 -11 23 -25 41 -14 18 -25
36 -26 41 0 4 -20 35 -45 68 -24 33 -60 83 -78 110 -18 28 -49 69 -67 92 -19
22 -60 77 -93 122 -32 44 -74 92 -92 106 -19 14 -34 31 -34 36 0 10 -55 77
-146 178 -23 25 -43 51 -45 58 -15 45 -546 572 -679 673 -44 33 -84 69 -89 79
-10 17 -67 65 -266 221 -49 39 -109 88 -133 110 -24 22 -49 40 -57 40 -7 0
-35 19 -61 43 -58 50 -110 87 -122 87 -5 0 -17 9 -27 20 -10 11 -22 20 -28 20
-5 0 -26 13 -46 28 -20 16 -43 32 -51 35 -17 8 -100 62 -186 122 -73 51 -73
51 -109 68 -37 17 -90 47 -147 83 -24 15 -63 38 -88 51 -90 47 -180 99 -192
111 -7 7 -17 12 -23 12 -10 0 -231 109 -360 178 -33 18 -64 32 -70 32 -6 0
-26 10 -45 23 -19 12 -71 38 -115 56 -44 19 -98 42 -120 51 -22 10 -51 21 -65
25 -14 4 -79 33 -145 65 -66 31 -158 70 -205 86 -47 15 -125 42 -175 60 -49
18 -112 39 -140 47 -27 8 -115 36 -195 61 -80 25 -183 55 -230 66 -47 12 -110
28 -140 35 -30 8 -89 21 -130 30 -41 9 -102 23 -135 30 -104 23 -413 75 -741
124 -122 18 -380 40 -598 51 -187 9 -807 11 -961 3z m45 -17607 c388 -12 884
-88 1285 -197 1501 -409 2775 -1376 3562 -2704 l83 -140 0 -1302 0 -1303 364
0 365 0 3 -117 c4 -140 -7 -508 -17 -610 l-8 -73 -353 0 c-347 0 -354 0 -354
20 0 13 -7 20 -20 20 -20 0 -20 -7 -20 -1192 l0 -1192 -57 -96 c-892 -1501
-2453 -2548 -4193 -2814 -600 -91 -1240 -91 -1840 0 -1730 264 -3270 1291
-4175 2785 l-55 90 0 1179 c0 1056 -2 1180 -15 1180 -9 0 -29 10 -46 23 -30
22 -36 22 -369 25 l-338 3 -7 50 c-10 69 -21 460 -17 592 l3 107 395 0 394 0
0 1365 0 1364 55 90 c905 1494 2445 2521 4175 2785 313 48 748 79 970 69 36
-1 139 -5 230 -7z"/>
<path d="M14250 10531 c-30 -10 -75 -28 -100 -41 -61 -31 -171 -144 -204 -207
-25 -51 -26 -56 -26 -248 0 -192 1 -197 26 -248 15 -28 57 -82 93 -118 106
-106 212 -149 366 -149 154 0 260 43 366 149 106 106 149 212 149 366 0 154
-43 260 -149 366 -107 107 -212 149 -370 148 -63 0 -115 -6 -151 -18z"/>
<path d="M19830 10351 c-91 -29 -142 -61 -211 -130 -106 -106 -149 -212 -149
-366 0 -155 43 -260 150 -367 45 -45 89 -78 131 -98 63 -30 66 -30 234 -30
168 0 171 0 234 30 42 20 86 53 131 98 107 107 150 212 150 367 0 154 -43 260
-149 366 -107 107 -212 149 -370 148 -63 0 -115 -6 -151 -18z"/>
</g>
</svg>
