<svg height="960" viewBox="0 0 960 960" width="960" xmlns="http://www.w3.org/2000/svg"><path d="m530.552776 2.05590062c233.993194 0 421.408912 213.74916838 421.408912 475.00000038s-187.415718 475-421.408912 475c-16.974059 0-33.833301-1.132076-50.514146-3.377249l-.25763-.035652-.623078-.00875c-1.671907-.039153-3.362125-.183579-5.063788-.439062l-.729966-.116309-86.339168-14.551879-5.461747-.794714c-205.283532-31.598394-359.3589615-224.02185-362.4506513-452.656997l-.0473748-7.010214c0-249.342262 179.0732091-455.1039202 406.3965971-463.87843179l-.856597.03925741 56.556773-3.94190062 1.819159-.23511689c15.037649-1.90363969 30.215867-2.90391484 45.488416-2.99298249zm0 49.99999998c-204.809609 0-371.408912 190.0078754-371.408912 425.0000004 0 234.992124 166.599303 425 371.408912 425s371.408912-190.007876 371.408912-425c0-234.992125-166.599303-425.0000004-371.408912-425.0000004zm-108.57263-2.673194-1.095367.0643999c-201.542778 11.3394445-361.8195521 196.6630285-361.8195521 423.6179685 0 216.497509 145.8468721 395.111781 334.2344951 420.955291l.314064.063412c-148.762928-63.140921-254.469922-226.188246-254.469922-417.027877 0-202.760513 119.325524-374.14816 282.836282-427.6731944zm149.526758 774.8252254c16.568543 0 30 13.431458 30 30 0 16.568543-13.431457 30-30 30h-42c-16.568542 0-30-13.431457-30-30 0-16.568542 13.431458-30 30-30zm0 20h-42c-5.522847 0-10 4.477153-10 10 0 5.522848 4.477153 10 10 10h42c5.522848 0 10-4.477152 10-10 0-5.522847-4.477152-10-10-10zm-20.351425-699.268676c162.095983 0 292.93243 149.220043 292.93243 332.686763 0 183.466719-130.836447 332.686762-292.93243 332.686762s-292.93243-149.220043-292.93243-332.686762c0-183.46672 130.836447-332.686763 292.93243-332.686763zm0 20c-150.422549 0-272.93243 139.723526-272.93243 312.686763 0 172.963236 122.509881 312.686762 272.93243 312.686762 150.42255 0 272.93243-139.723526 272.93243-312.686762 0-172.963237-122.50988-312.686763-272.93243-312.686763zm23.866498 57.536042c124.27351 0 224.448785 114.250724 224.448785 254.580603 0 140.329878-100.175275 254.580603-224.448785 254.580603-5.024264 0-10.009139-.186744-14.949597-.554406-1.031125.358807-2.139809.554406-3.294178.554406-124.273511 0-224.448786-114.250725-224.448786-254.580603 0-140.329879 100.175275-254.580603 224.448786-254.580603 1.154369 0 2.263053.195598 3.294718.55546 4.939918-.368716 9.924793-.55546 14.949057-.55546zm0 20c-112.600077 0-204.448786 104.754207-204.448786 234.580603 0 129.826395 91.848709 234.580603 204.448786 234.580603 112.600076 0 204.448785-104.754208 204.448785-234.580603 0-129.826396-91.848709-234.580603-204.448785-234.580603zm-21.094365-168.2306687c14.339136 0 25.963303 11.6241666 25.963303 25.9633027 0 14.339136-11.624167 25.963303-25.963303 25.963303h-6.841415c-14.339136 0-25.963303-11.624167-25.963303-25.963303 0-14.3391361 11.624167-25.9633027 25.963303-25.9633027zm0 20h-6.841415c-3.293441 0-5.963303 2.6698616-5.963303 5.9633027 0 3.293441 2.669862 5.963303 5.963303 5.963303h6.841415c3.293441 0 5.963303-2.669862 5.963303-5.963303 0-3.2934411-2.669862-5.9633027-5.963303-5.9633027z"/></svg>