<?xml version="1.0" encoding="UTF-8" standalone="no"?>
<svg
   xmlns:dc="http://purl.org/dc/elements/1.1/"
   xmlns:cc="http://creativecommons.org/ns#"
   xmlns:rdf="http://www.w3.org/1999/02/22-rdf-syntax-ns#"
   xmlns:svg="http://www.w3.org/2000/svg"
   xmlns="http://www.w3.org/2000/svg"
   xmlns:sodipodi="http://sodipodi.sourceforge.net/DTD/sodipodi-0.dtd"
   xmlns:inkscape="http://www.inkscape.org/namespaces/inkscape"
   version="1.0"
   width="500.000000pt"
   height="500.000000pt"
   viewBox="0 0 500.000000 500.000000"
   preserveAspectRatio="xMidYMid meet"
   id="svg4082"
   sodipodi:docname="icon.svg"
   inkscape:version="0.92.2 (5c3e80d, 2017-08-06)">
  <defs
     id="defs4086" />
  <sodipodi:namedview
     pagecolor="#ffffff"
     bordercolor="#666666"
     borderopacity="1"
     objecttolerance="10"
     gridtolerance="10"
     guidetolerance="10"
     inkscape:pageopacity="0"
     inkscape:pageshadow="2"
     inkscape:window-width="1299"
     inkscape:window-height="713"
     id="namedview4084"
     showgrid="false"
     inkscape:zoom="0.354"
     inkscape:cx="333.33333"
     inkscape:cy="333.33333"
     inkscape:window-x="67"
     inkscape:window-y="27"
     inkscape:window-maximized="1"
     inkscape:current-layer="svg4082" />
  <metadata
     id="metadata4062">
Created by potrace 1.13, written by Peter Selinger 2001-2015
<rdf:RDF>
  <cc:Work
     rdf:about="">
    <dc:format>image/svg+xml</dc:format>
    <dc:type
       rdf:resource="http://purl.org/dc/dcmitype/StillImage" />
    <dc:title />
  </cc:Work>
</rdf:RDF>
</metadata>
  <path
     style="fill:#000000;stroke-width:0.99486554"
     d="m 141.09675,444.17047 c -14.99915,-6.29449 -28.75803,-21.54882 -40.15257,-44.5168 l -4.72755,-9.5293 -25.47803,-1.1735 C 56.72569,388.30545 42.21893,387.3323 38.50136,386.78834 26.83709,385.0816 18.90184,379.61886 14.21092,370.06646 l -2.77576,-5.65242 -0.26648,-142.26577 c -0.18642,-99.52536 0.0583,-143.83193 0.81463,-147.47891 2.0425,-9.84906 11.10833,-19.5248 20.71878,-22.11263 17.23361,-4.64053 112.8998,-4.63834 130.50891,0.003 5.26968,1.38895 12.07799,6.28875 15.6504,11.26324 6.46823,9.00685 6.17779,1.70353 6.17779,155.34071 0,153.63719 0.29044,146.33388 -6.17779,155.34071 -3.57002,4.97119 -10.37556,9.87084 -15.6504,11.26755 -4.54482,1.20338 -23.87568,2.75032 -45.02196,3.60281 l -16.60942,0.6696 4.05707,8.06911 c 9.64955,19.19199 22.91419,34.47798 35.14281,40.49812 8.87598,4.36966 17.98056,4.61927 26.40595,0.72401 21.71783,-10.04068 38.05748,-33.90904 48.10796,-70.27434 3.65314,-13.21801 5.00775,-19.96822 11.01481,-54.8879 9.61161,-55.8734 16.21107,-75.46932 29.97114,-88.99384 17.33454,-17.03782 45.44159,-20.13389 71.90453,-7.92048 21.57479,9.95739 44.81022,31.75781 60.98105,57.21483 l 4.80015,7.55663 12.68246,0.61326 c 35.31701,1.70774 61.21584,16.58595 77.97397,44.79405 4.81695,8.10812 5.86178,13.72212 3.42932,18.42599 -2.8671,5.54438 -13.81305,12.27305 -28.42878,17.4757 -4.10382,1.46081 -11.06649,4.43007 -15.47259,6.59835 -14.49451,7.13288 -34.242,10.88357 -57.3293,10.88868 -15.26886,0.003 -26.01477,-1.36937 -34.64358,-4.42565 -25.56464,-9.05489 -29.15134,-10.84123 -37.38424,-18.61918 -9.76899,-9.22916 -13.7103,-22.25509 -9.81777,-32.44753 4.75523,-12.45142 26.29757,-28.17454 48.6943,-35.54053 9.09813,-2.99226 26.061,-6.46111 31.59518,-6.46111 h 3.74287 l -3.71988,-5.72048 c -24.17255,-37.17281 -55.66982,-60.5529 -84.35281,-62.61419 -27.03736,-1.94302 -45.96884,11.27918 -56.16971,39.23023 -4.7128,12.91336 -7.66909,26.01605 -13.47273,59.71278 -8.20673,47.64949 -11.86087,62.6952 -19.76425,81.37848 -9.00417,21.28549 -24.20888,39.51614 -39.09888,46.88001 -6.93903,3.43173 -8.5306,3.81964 -16.68136,4.06586 -7.63672,0.23067 -9.87034,-0.0886 -14.65056,-2.09472 z m 9.05861,-61.3534 c 5.71041,-0.58498 12.2019,-1.87376 14.42555,-2.86394 4.83032,-2.15092 9.88551,-7.0953 12.83586,-12.5545 l 2.15066,-3.97946 V 219.16367 74.90817 l -2.15066,-3.97946 c -2.97656,-5.50768 -8.01665,-10.4086 -12.97376,-12.6155 -7.00166,-3.11712 -24.02378,-4.19466 -66.45455,-4.20673 -57.53353,-0.0163 -68.16891,1.53704 -76.05915,11.10927 -6.37893,7.73875 -6.01726,-1.5162 -6.01726,153.97669 0,105.21551 0.29744,142.3088 1.16131,144.82443 3.21231,9.3543 10.50017,15.79664 20.1038,17.7714 13.95751,2.87005 88.38877,3.54784 112.9782,1.0288 z m -84.99747,-0.68345 c -15.17782,-0.64447 -29.26012,-2.27991 -33.19756,-3.85537 -5.05956,-2.02443 -11.30793,-8.89378 -12.88857,-14.16948 -1.68221,-5.6147 -1.68221,-284.2755 0,-289.8902 1.57805,-5.26704 7.82639,-12.144 12.8661,-14.1605 7.30143,-2.92146 24.71977,-3.96782 66.0506,-3.96782 62.38945,0 70.24746,1.50566 77.4419,14.83846 l 2.14734,3.97946 v 144.2555 144.2555 l -2.48717,4.43043 c -3.34051,5.95053 -9.63368,10.58583 -16.14577,11.89237 -11.8339,2.37427 -63.29252,3.6865 -93.78687,2.39165 z m 84.21512,-8.18987 c 10.54161,-1.08456 15.14374,-3.15598 18.59353,-8.36897 l 2.6471,-4.00004 V 219.23633 c 0,-134.53365 -0.097,-142.51595 -1.76877,-145.57599 -3.132,-5.73286 -8.05094,-8.09426 -19.18416,-9.20959 -26.60371,-2.66515 -98.0665,-2.03656 -111.28719,0.97889 -5.0772,1.15803 -8.50398,3.77001 -11.25287,8.5772 l -2.22208,3.88593 v 141.2709 141.2709 l 2.23723,3.95004 c 4.47068,7.89341 7.7175,8.93903 32.56029,10.48592 15.80001,0.98381 77.28246,0.34842 89.67692,-0.92678 z M 88.0398,278.70785 C 75.57544,276.112 63.99676,270.38284 56.33308,263.01927 49.46968,256.42463 43.5464,247.29086 40.59637,238.75301 c -1.94394,-5.62603 -2.29985,-8.65755 -2.29985,-19.58934 0,-10.93179 0.35591,-13.9633 2.29985,-19.58933 6.14979,-17.79846 21.36825,-32.43675 39.70354,-38.18998 7.93711,-2.49048 21.69576,-2.93561 30.46124,-0.98549 22.32334,4.96649 40.8117,22.91697 45.92038,44.58442 4.87319,20.66869 -1.13465,41.49616 -16.29663,56.49565 -8.70544,8.61215 -16.39977,13.0522 -27.56898,15.9088 -7.06802,1.8077 -19.30435,2.45965 -24.77612,1.32011 z m 20.18797,-7.89597 c 22.01778,-4.52831 39.02953,-22.55913 42.15865,-44.68414 5.3877,-38.09488 -32.53268,-69.29228 -69.31067,-57.02248 -7.65476,2.55375 -18.22376,9.58107 -23.37898,15.54461 -10.79998,12.49338 -15.36006,31.05818 -11.41981,46.49189 3.48384,13.64601 10.87281,24.19107 22.14226,31.60006 13.38269,8.79832 24.90763,11.13467 39.80855,8.07006 z M 91.28215,239.19455 c -5.64763,-2.10199 -8.44867,-4.252 -11.45185,-8.79016 -2.34968,-3.55055 -2.73402,-5.14349 -2.73402,-11.33108 0,-6.41513 0.33006,-7.66984 3.02877,-11.5136 9.06016,-12.90436 28.15612,-12.40794 35.98966,0.93561 5.78251,9.84983 2.5284,22.93742 -7.10725,28.58429 -5.32765,3.12221 -12.66638,3.99786 -17.72531,2.11494 z m 12.47428,-4.9597 c 4.1467,-1.73261 9.27021,-7.58412 10.15073,-11.59302 2.306,-10.4992 -8.14242,-21.48992 -18.55862,-19.52183 -15.44885,2.91899 -18.71162,23.22678 -4.8554,30.2205 5.08332,2.56574 8.68228,2.80842 13.26329,0.89435 z m 315.46239,140.72719 c 9.71609,-2.00999 14.78807,-3.96693 7.07525,-2.72988 -17.58647,2.82068 -30.1085,3.91864 -45.76382,4.01268 -9.84915,0.0592 -16.34066,0.41163 -14.42555,0.78328 1.91513,0.37164 12.43583,0.51669 23.37935,0.32236 15.07761,-0.26776 22.28022,-0.8463 29.73477,-2.38844 z m 0.11117,-3.96633 c 14.67624,-2.55289 25.44642,-5.14956 35.64041,-8.5928 9.19113,-3.10452 17.6614,-6.91729 13.27756,-5.97672 -40.04442,8.59177 -97.5716,15.3263 -118.93379,13.92323 -6.02123,-0.39548 -6.246,-0.34394 -2.60937,0.59837 8.96434,2.32276 15.99894,2.7806 37.80489,2.46048 17.52162,-0.25722 25.67856,-0.82238 34.8203,-2.41256 z m 14.1561,0.27875 c -0.33057,-0.33059 -1.18866,-0.36591 -1.90683,-0.0786 -0.79363,0.31757 -0.55789,0.55331 0.60108,0.60106 1.04874,0.0431 1.63634,-0.19195 1.30575,-0.52253 z m -61.90964,-6.38065 c 18.09972,-1.2931 43.14444,-4.33221 66.15856,-8.02819 37.98381,-6.10005 48.7484,-10.0461 48.7484,-17.87006 0,-8.80017 -17.72968,-30.858 -32.2892,-40.17161 -10.63883,-6.80557 -24.95775,-11.58895 -40.30988,-13.46591 -4.63665,-0.56687 -8.53256,-1.03067 -8.65758,-1.03067 -1.05099,0 4.64673,4.85223 6.31099,5.37449 7.38531,2.31759 9.4955,8.51471 4.36839,12.82891 -7.95357,6.69247 -33.66064,6.70577 -41.04699,0.0212 -2.89001,-2.61543 -2.33646,-7.75165 1.09905,-10.19796 1.58919,-1.13161 3.36252,-2.05748 3.94071,-2.05748 1.10585,0 5.31596,-4.10334 4.77015,-4.64915 -0.60948,-0.60948 -21.11174,3.54642 -28.01559,5.67887 -26.65208,8.23222 -51.23558,28.31749 -51.23558,41.86063 0,4.3067 4.39153,13.11265 9.11871,18.28493 8.48881,9.28811 19.37528,13.15646 40.12715,14.25854 1.64151,0.0871 9.25224,-0.28929 16.91271,-0.83655 z m 39.45699,-62.48238 c 5.91933,-2.88215 6.76113,-4.93229 3.26138,-7.94266 -1.47081,-1.26514 -3.26102,-2.07505 -3.97827,-1.79982 -0.71726,0.27524 -1.44746,0.0703 -1.62267,-0.45526 -0.17522,-0.52563 -2.08955,-0.0528 -4.25408,1.05075 -4.6426,2.36693 -12.04236,2.62692 -16.90764,0.59408 -4.1682,-1.74159 -7.91712,-1.40803 -10.50582,0.93472 -2.47266,2.23772 -2.48345,3.68213 -0.0439,5.88981 3.76521,3.40745 9.06825,4.57135 19.46574,4.27223 7.91673,-0.22774 10.89566,-0.7473 14.58536,-2.54385 z m -21.05199,-14.22642 c 0,-1.75719 -0.24858,-1.90523 -1.48135,-0.88215 -1.49726,1.24263 -1.17836,2.99369 0.5452,2.99369 0.51489,0 0.93615,-0.95019 0.93615,-2.11154 z m 13.4307,0.12178 c 0,-0.72957 -0.46369,-1.48106 -1.03041,-1.66996 -0.56671,-0.18891 -1.03041,0.56258 -1.03041,1.66996 0,1.10738 0.4637,1.85885 1.03041,1.66995 0.56672,-0.18891 1.03041,-0.94038 1.03041,-1.66995 z"
     id="path169"
     inkscape:connector-curvature="0" />
</svg>
