<?xml version="1.0" encoding="utf-8"?>
<!-- Generator: Adobe Illustrator 21.0.0, SVG Export Plug-In . SVG Version: 6.00 Build 0)  -->
<svg version="1.1" id="Layer_1" xmlns="http://www.w3.org/2000/svg" xmlns:xlink="http://www.w3.org/1999/xlink" x="0px" y="0px"
	 viewBox="0 0 831.6 1549.4" style="enable-background:new 0 0 831.6 1549.4;" xml:space="preserve">
<g>
	<path d="M827.1,414.7c0-55.6-10.9-109.5-32.4-160.3c-20.7-49-50.4-93.1-88.2-130.9c-37.8-37.8-81.8-67.5-130.9-88.2
		C524.9,13.9,471,3,415.4,3S305.9,13.9,255.1,35.4c-49,20.7-93.1,50.4-130.9,88.2C86.4,161.4,56.7,205.4,36,254.5
		C14.5,305.2,3.6,359.1,3.6,414.7c0,19.9,1.4,40,4.3,59.6l0.3,1.7c0.1,0.8,0.2,1.6,0.4,2.4c0.1,0.8,0.3,1.7,0.4,2.5l0.2,1.1
		c1.6,9.6,3.7,19.9,6.2,30.4c0.1,0.2,0.1,0.4,0.2,0.6l0.1,0.6c6.5,27.5,18.5,69.2,38.6,112.4c13.5,28.8,29.8,58.2,45.5,86.6
		c29.6,53.3,60.2,108.4,73.7,162.8c15.8,87.7,24.3,184.2,25.8,294.8c0.1,8,3.5,17.1,10.4,28c8.1,12.7,15.8,24,23,33.6
		c0.3,9.6,1.2,17.3,4.8,23.8c2,3.6,6.8,6.7,14.6,11.4c0.6,0.8,1.2,1.4,1.7,2l0.1,0.2c0.4,0.5,0.8,0.9,1.1,1.3c0.4,0.4,0.7,0.8,1,1.2
		c2.7,3.4,5.2,7,7.1,10.5c1.7,3.3,3,6.4,3.6,9.4l0.2,0.7c2.3,6.4,4.4,14.9,5.9,24.4c1.8,10.2,3.3,22.3,4.4,36.2
		c1.1,14.1,1.9,29,2.3,44.1c0.4,16.9,0.5,33.2,0.2,47.2l-0.1,5.4l0.9,0.1l38.9,42.1h-0.5l48.9,42.7l0.9,0.7
		c6.2,5.4,12.7,11,45.7,12.2h0.5c33-1.2,39.4-6.8,45.7-12.2l0.9-0.7l34.8-30.4l14.2-12.4h-0.3l40.6-42.9h-1l-0.1-4.7
		c-0.4-15.5-0.3-31.9,0.2-47.2c0.3-15.1,1.1-29.9,2.3-44.1c1.2-13.9,2.7-26,4.4-36.2c1.7-10.1,3.7-18.3,5.9-24.4l0.2-0.7
		c0.6-2.9,1.8-6.1,3.5-9.4c1.8-3.4,4.2-6.9,7.2-10.5c0.2-0.2,0.4-0.5,0.7-0.8c0.4-0.5,0.9-1.1,1.6-1.8c0.8-1,1.7-2,2.5-3.1
		c8.1-3.8,13.2-6.4,15.4-10.3c3.6-6.5,4.5-14.2,4.8-23.8c7.2-9.6,14.9-20.9,23-33.6c6.9-10.8,10.3-20,10.4-27.9
		c1.5-110.7,9.9-207.1,25.8-294.8c13.6-54.4,44.2-109.5,73.7-162.8c15.8-28.4,32.1-57.8,45.5-86.6c5.6-12.1,11.1-25,16.1-38.4l0.5,0
		l0-1.4c19.7-52.9,27.3-95.8,29.7-111.8l0.1-0.4l-0.2,0C825.7,454.6,827.1,434.6,827.1,414.7z M780.8,577.4
		c-0.3,0.7-0.5,1.4-0.8,2.1c-237.8-6.4-483.1-6.3-728.9,0.2c-0.3-0.9-0.6-1.8-1-2.6l2.5-1.1l-0.2-0.3c-9.4-21.2-17-43.3-22.5-65.8
		c-2.2-9.3-4.1-18.3-5.6-26.7l0-0.2c-0.2-1.1-0.4-2.1-0.5-3.1l-0.2-1.4c-0.1-0.8-0.3-1.5-0.4-2.3c-0.1-0.8-0.3-1.7-0.4-2.5l-0.2-1.6
		c-2.7-18.8-4.1-38.1-4.1-57.2c0-53.6,10.5-105.5,31.2-154.5c20-47.3,48.6-89.7,85-126.1c36.4-36.4,78.9-65.1,126.1-85
		c48.9-20.7,100.9-31.2,154.5-31.2c53.6,0,105.5,10.5,154.5,31.2c47.3,20,89.7,48.6,126.1,85c36.4,36.4,65.1,78.9,85,126.1
		c20.7,48.9,31.2,100.9,31.2,154.5c0,56.1-11.5,110.3-34,161.1l-0.2,0.3L780.8,577.4z M777.1,587.2c-4.4,11.3-9,22.2-13.8,32.5
		c-13.2,28.4-29.4,57.5-45.1,85.7c-30.1,54.2-61.2,110.2-75.2,166.7l-0.1,0.5c-16,88.6-24.5,185.9-26.1,297.5c0,2.6-0.8,5.6-2.2,9.1
		c-35.4,12.5-111.9,20.2-199.7,20.2c-87.3-0.1-163.3-7.9-198.5-20.3c-1.4-3.5-2.1-6.5-2.2-9.1c-1.5-111.6-10.1-208.9-26.1-297.5
		l-0.1-0.5c-14-56.4-45.1-112.5-75.2-166.7c-15.6-28.2-31.8-57.3-45.1-85.7c-4.8-10.2-9.4-21.1-13.7-32.3
		C297.9,581,541.1,580.9,777.1,587.2z M406.2,1207.2l0.4,0c3,0,5.9,0,8.8,0h0.4c2.9,0,5.9,0,8.8,0l0.4,0
		c79.2-0.5,146.3-7.1,184.5-18.2c-0.2,0.4-0.5,0.8-0.8,1.2c-8.4,13.2-16.4,24.9-23.7,34.5l-1,1.4c-54.4,6.2-111.1,9.6-168.4,10
		c-57.4-0.4-114.1-3.8-168.5-10l-1-1.4c-7.3-9.7-15.3-21.3-23.7-34.5c-0.3-0.4-0.5-0.8-0.8-1.3
		C259.7,1200.1,326.9,1206.8,406.2,1207.2z M540.7,1315.7c-1.7,10.5-3.2,22.8-4.3,36.4c-1.1,12.3-1.8,26.7-2.3,43.8
		c-0.4,14.3-0.5,28.2-0.3,41.4l-8.6,0.6c-2.9,0.2-5.6,0.4-8.2,0.6l-2.2,0.1c-4.5,0.3-8.7,0.5-12.9,0.7c-4.7,0.3-9.4,0.5-13.8,0.6
		l-2,0.1c-2.7,0.1-5.3,0.2-7.8,0.3c-3.2,0.1-6.3,0.2-9.4,0.3l-2.8,0.1c-5.1,0.1-10.1,0.2-14.9,0.4c-6,0.1-11.9,0.2-17.5,0.3l-2.1,0
		c-5.9,0.1-11.4,0.1-16.8,0.1c-5.9,0-11.9-0.1-18.2-0.1l-0.3,0c-5.8-0.1-11.8-0.1-18-0.3c-5.8-0.1-11.7-0.3-17.7-0.4
		c-3-0.1-6.1-0.2-9.2-0.3c-2.6-0.1-5.3-0.2-8-0.3l-1.9-0.1c-4.5-0.2-9.1-0.4-13.9-0.7c-4-0.2-8.1-0.4-12.4-0.7l-2.7-0.2
		c-3.3-0.2-6.8-0.5-10.5-0.7l-6.2-0.4c0.1-10.1,0.1-19.2,0-27.8c13.5,1.2,28.7,2.1,45.4,2.9c26.8,1.2,57.4,1.9,86.3,1.9h0.4v-9.3
		h-0.4c-29,0-59.5-0.7-85.9-1.8c-17-0.8-32.4-1.8-46-2.9c0-1.4-0.1-2.9-0.1-4.3c-0.2-6.9-0.5-13.8-0.8-20.5
		c13.7,1.2,29.3,2.2,46.5,3c26.8,1.2,57.4,1.9,86.3,1.9h0.4v-9.3h-0.4c-29,0-59.5-0.7-85.9-1.9c-17.5-0.8-33.5-1.8-47.4-3.1
		c-0.3-4.9-0.6-9.6-1-13.9c-0.3-3.7-0.7-7.4-1-11c14.3,1.3,30.8,2.4,49,3.2c26.8,1.2,57.4,1.9,86.3,1.9h0.4v-9.3h-0.4
		c-29,0-59.5-0.7-85.9-1.9c-18.8-0.9-35.8-2-50.5-3.4c-0.7-5.7-1.5-11.1-2.3-16c-0.5-3.2-1.1-6.3-1.7-9.1
		c15.5,1.5,33.7,2.7,54.2,3.7c34.3,1.6,65.8,1.9,86.3,1.9h0.4v-9.3h-0.4c-29.1,0-59.6-0.7-85.9-1.8c-21.7-1-40.9-2.3-56.9-4
		c-0.7-2.5-1.4-4.8-2.2-6.8c-0.8-3.7-2.2-7.5-4.4-11.6c-1.2-2.2-2.6-4.3-3.9-6.4l4.1,0.4c8.4,0.8,16.2,1.4,23.8,1.9
		c14.9,1,32.4,1.9,52.1,2.5c19.9,0.6,40.7,1,60.4,1.1c19.5-0.1,40.4-0.5,60.3-1.1c19.7-0.6,37.3-1.5,52.1-2.5
		c8.6-0.5,16.8-1.2,24.2-2l4.4-0.4c-1.6,2.3-2.9,4.5-4,6.4l0,0c-2.1,4-3.6,7.9-4.4,11.5C544.5,1297.2,542.4,1305.8,540.7,1315.7z
		 M365.9,1507.6c7,0.2,14.9,0.4,23.2,0.4c7.8,0.1,16.6,0.1,25.5,0.1c8.7,0,17-0.1,25.5-0.1c8.4-0.1,16.2-0.2,23.2-0.4
		c3.6-0.1,7-0.3,10.1-0.4l-21.5,18.8l-0.9,0.8c-4.5,3.8-9.1,7.7-36.4,8.8c-27.3-1-32-5-36.4-8.8l-22.5-19.6
		C358.9,1507.4,362.3,1507.5,365.9,1507.6z M527.9,1261.2c-15.1,1.1-32.3,1.9-52.6,2.6c-17.8,0.6-37.7,0.9-61,1.1
		c-23.8-0.2-43.2-0.5-61.1-1.1c-20.2-0.7-37.4-1.5-52.5-2.6c-9.2-0.6-16.8-1.2-23.7-1.9c-4.1-0.4-7.6-0.8-10.9-1.2
		c-1.6-1-3.4-2.1-5.4-3.3c-3.3-2-8.8-5.3-10.4-6.8c-1.5-2.9-2.3-7.2-2.6-13.9c51.3,5.8,104.6,9.1,158.5,9.8v0.2l0.4,0c3,0,6,0,9-0.1
		c3,0,6,0,9,0.1l0.4,0v-0.2c53.9-0.7,107.1-4,158.4-9.8c-0.3,6.5-1.1,10.7-2.5,13.7c-1.9,1.4-7.7,4.1-11.2,5.7
		c-4.1,1.9-7.5,3.5-10,4.9c-2.4,0.3-4.8,0.5-7.4,0.8C544.9,1260,536.8,1260.6,527.9,1261.2z"/>
	<path d="M334,1097.5h165.7v-59.9H334V1097.5z M496.9,1067.7c0,14.7-35.9,26.6-80.1,26.6c-44.2,0-80.1-11.9-80.1-26.6
		s35.9-26.6,80.1-26.6C461,1041.1,496.9,1053,496.9,1067.7z"/>
	<path d="M414,1075.7l-7.1-11.5l6.4-9.1h-15.4l0.4,0.6c0.1,0.1,0.2,0.3,0.2,0.4c0,0.2,0,0.4-0.1,0.5l-4.4,5.7l0-5.7l0.1-0.5l0.6-0.9
		h-15.6l0.7,0.8l0.1,0.4l0,19.1l-0.1,0.5l-0.6,0.9h15.5l-0.6-0.9l-0.1-0.4v-6l3.7,5.8c0,0,0.1,0.4,0.1,0.7c0,0,0,0,0,0l-0.1,0l0,0
		H397l0.2,0.3l-0.4,0.4h0.1h0.4l0,0.5l0.6-0.5h0.5h18.1l-2.1-1L414,1075.7z"/>
	<polygon points="373.2,1055.3 357.6,1055.3 358.2,1056.1 358.2,1075.7 358.2,1076.3 357.8,1077.2 373.1,1077.2 372.5,1076.3 
		372.4,1075.8 372.4,1056.6 372.5,1056.1 	"/>
	<polygon points="441.9,1070.1 441.4,1070.2 431.6,1070.2 431.6,1069 438.9,1069 439.5,1069.1 440.4,1069.6 440.4,1062.4 
		439.5,1063 439,1063 431.6,1063 431.6,1062.1 441.3,1062.1 441.9,1062.1 442.8,1062.5 442.8,1055.1 417.2,1055.1 417.7,1056 
		417.8,1056.5 417.8,1075.7 417.7,1076.3 417.2,1077.2 442.9,1077.2 442.8,1069.4 	"/>
	<path d="M481.3,1075.9l-8.3-19.4c0-0.1-0.1-0.4,0-0.5c0-0.1,0-0.1,0-0.1l1.4-0.7h-21.8l0.9,0.7c0,0,0.1,0.1,0.1,0.2
		c0,0.1,0,0.4,0,0.5l-7.2,19.3c-0.2,0.3-0.5,0.5-0.5,0.5l-1.6,0.7h1.6l0,0.1l0.1-0.1h12.2l0.7,0l-0.4-0.6c0,0-0.1-0.2-0.2-0.5l1-2.7
		h6l0.9,2.4c0,0,0,0.3,0.1,0.5c0,0.1-0.1,0.3-0.2,0.5l-0.3,0.5l16.6-0.1l-1.1-0.9L481.3,1075.9z M463.5,1067.9h-2.2l1.1-2.4
		L463.5,1067.9z"/>
</g>
</svg>
