<?xml version="1.0" standalone="no"?>
<!DOCTYPE svg PUBLIC "-//W3C//DTD SVG 20010904//EN"
 "http://www.w3.org/TR/2001/REC-SVG-20010904/DTD/svg10.dtd">
<svg version="1.0" xmlns="http://www.w3.org/2000/svg"
 width="332.000000pt" height="339.000000pt" viewBox="0 0 332.000000 339.000000"
 preserveAspectRatio="xMidYMid meet">

<g transform="translate(0.000000,339.000000) scale(0.100000,-0.100000)"
fill="#000000" stroke="none">
<path d="M951 3206 c-41 -23 -50 -53 -51 -168 l0 -107 -214 -3 -214 -3 -43
-30 c-24 -17 -52 -46 -64 -65 -20 -35 -20 -47 -23 -1153 -2 -772 1 -1131 8
-1158 14 -53 73 -116 119 -129 24 -8 413 -10 1223 -8 l1186 3 39 31 c21 16 48
50 61 74 l22 44 0 1111 c0 779 -3 1122 -11 1150 -14 51 -73 110 -124 124 -23
6 -123 11 -232 11 l-193 0 0 111 0 111 -34 34 c-45 45 -92 47 -138 5 l-33 -29
-3 -116 -4 -116 -558 0 -558 0 -4 116 -3 116 -33 29 c-36 32 -80 38 -121 15z
m-13 -627 c44 -39 90 -39 134 0 29 26 32 34 38 107 l5 79 23 -35 c29 -46 30
-122 2 -168 -55 -90 -194 -99 -259 -16 -46 58 -48 148 -4 196 18 20 18 18 23
-57 5 -71 7 -79 38 -106z m1330 0 c46 -42 93 -40 138 5 32 32 34 37 34 108 l1
73 19 -23 c59 -71 38 -183 -43 -232 -43 -27 -121 -26 -165 0 -72 44 -95 148
-50 220 l23 35 5 -79 c6 -73 9 -81 38 -107z m572 -1195 c0 -788 -1 -814 -34
-836 -6 -4 -518 -8 -1138 -8 l-1127 0 -20 26 c-21 26 -21 33 -21 815 l0 789
1170 0 1170 0 0 -786z"/>
<path d="M826 1964 c-13 -12 -16 -40 -16 -144 0 -118 2 -130 19 -140 28 -15
254 -13 269 2 8 8 12 55 12 145 0 121 -2 133 -19 143 -11 5 -71 10 -135 10
-91 0 -118 -3 -130 -16z"/>
<path d="M1302 1964 c-21 -14 -22 -22 -22 -139 0 -99 3 -127 16 -139 12 -13
40 -16 139 -16 157 0 155 -2 155 157 0 100 -2 115 -20 133 -18 18 -33 20 -133
20 -86 0 -118 -4 -135 -16z"/>
<path d="M1770 1960 c-18 -18 -20 -33 -20 -133 0 -159 -2 -157 155 -157 99 0
127 3 139 16 13 12 16 40 16 138 0 160 4 156 -153 156 -104 0 -119 -2 -137
-20z"/>
<path d="M2248 1969 c-16 -9 -18 -27 -18 -144 0 -123 2 -135 19 -145 28 -15
254 -13 269 2 8 8 12 54 12 139 0 103 -3 131 -16 143 -12 13 -39 16 -132 16
-64 0 -125 -5 -134 -11z"/>
<path d="M2256 1495 c-19 -10 -21 -21 -24 -139 -2 -86 1 -133 9 -142 15 -19
259 -20 277 -2 17 17 17 262 -1 276 -17 14 -235 20 -261 7z"/>
<path d="M822 1488 c-17 -17 -17 -259 0 -276 17 -17 259 -17 276 0 17 17 17
259 0 276 -8 8 -53 12 -138 12 -85 0 -130 -4 -138 -12z"/>
<path d="M1292 1488 c-15 -15 -17 -241 -2 -269 10 -17 22 -19 139 -19 165 0
161 -4 161 149 0 62 -5 121 -10 132 -10 17 -22 19 -143 19 -90 0 -137 -4 -145
-12z"/>
<path d="M1760 1481 c-5 -11 -10 -68 -10 -128 0 -155 -2 -153 155 -153 99 0
127 3 139 16 13 12 16 40 16 138 0 81 -4 126 -12 134 -8 8 -55 12 -145 12
-121 0 -133 -2 -143 -19z"/>
<path d="M822 1018 c-17 -17 -17 -259 0 -276 17 -17 259 -17 276 0 17 17 17
259 0 276 -17 17 -259 17 -276 0z"/>
<path d="M1292 1018 c-8 -8 -12 -53 -12 -138 0 -85 4 -130 12 -138 8 -8 55
-12 145 -12 l133 0 10 26 c6 14 10 74 10 134 0 144 4 140 -159 140 -85 0 -131
-4 -139 -12z"/>
<path d="M1760 1004 c-13 -34 -13 -230 0 -255 10 -17 22 -19 143 -19 90 0 137
4 145 12 15 15 17 241 2 269 -10 17 -22 19 -146 19 l-134 0 -10 -26z"/>
</g>
</svg>
