<?xml version="1.0" encoding="UTF-8" standalone="no"?>
<svg
   xmlns:dc="http://purl.org/dc/elements/1.1/"
   xmlns:cc="http://creativecommons.org/ns#"
   xmlns:rdf="http://www.w3.org/1999/02/22-rdf-syntax-ns#"
   xmlns:svg="http://www.w3.org/2000/svg"
   xmlns="http://www.w3.org/2000/svg"
   xmlns:sodipodi="http://sodipodi.sourceforge.net/DTD/sodipodi-0.dtd"
   xmlns:inkscape="http://www.inkscape.org/namespaces/inkscape"
   viewBox="0 0 48 60"
   x="0px"
   y="0px"
   version="1.1"
   id="svg22"
   sodipodi:docname="icon.svg"
   inkscape:version="0.92.4 (5da689c313, 2019-01-14)">
  <metadata
     id="metadata26">
    <rdf:RDF>
      <cc:Work
         rdf:about="">
        <dc:format>image/svg+xml</dc:format>
        <dc:type
           rdf:resource="http://purl.org/dc/dcmitype/StillImage" />
        <dc:title>switch</dc:title>
      </cc:Work>
    </rdf:RDF>
  </metadata>
  <sodipodi:namedview
     pagecolor="#ffffff"
     bordercolor="#666666"
     borderopacity="1"
     objecttolerance="10"
     gridtolerance="10"
     guidetolerance="10"
     inkscape:pageopacity="0"
     inkscape:pageshadow="2"
     inkscape:window-width="1920"
     inkscape:window-height="1001"
     id="namedview24"
     showgrid="false"
     inkscape:zoom="3.9333333"
     inkscape:cx="24"
     inkscape:cy="30"
     inkscape:window-x="-9"
     inkscape:window-y="-9"
     inkscape:window-maximized="1"
     inkscape:current-layer="svg22" />
  <defs
     id="defs4">
    <style
       id="style2">.cls-1{fill:none;}</style>
  </defs>
  <title
     id="title6">switch</title>
  <g
     data-name="Livello 2"
     id="g16"
     transform="translate(-0.35593224,-0.10169495)">
    <g
       id="g14">
      <rect
         y="0"
         x="0"
         class="cls-1"
         width="48"
         height="48"
         id="rect8"
         style="fill:none" />
      <path
         inkscape:connector-curvature="0"
         d="M 29.4,30.38 A 6.38,6.38 0 1 1 35.77,24 6.38,6.38 0 0 1 29.4,30.38 Z m 0,-11.26 A 4.88,4.88 0 1 0 34.27,24 4.89,4.89 0 0 0 29.4,19.12 Z"
         id="path10" />
      <path
         inkscape:connector-curvature="0"
         d="M 29.4,33.75 H 18.6 a 9.75,9.75 0 0 1 0,-19.5 h 10.8 a 9.75,9.75 0 0 1 0,19.5 z m -10.8,-18 a 8.25,8.25 0 0 0 0,16.5 h 10.8 a 8.25,8.25 0 0 0 0,-16.5 z"
         id="path12" />
    </g>
  </g>
</svg>
