<?xml version="1.0" encoding="UTF-8" standalone="no"?>
<svg
   xmlns:dc="http://purl.org/dc/elements/1.1/"
   xmlns:cc="http://creativecommons.org/ns#"
   xmlns:rdf="http://www.w3.org/1999/02/22-rdf-syntax-ns#"
   xmlns:svg="http://www.w3.org/2000/svg"
   xmlns="http://www.w3.org/2000/svg"
   xmlns:sodipodi="http://sodipodi.sourceforge.net/DTD/sodipodi-0.dtd"
   xmlns:inkscape="http://www.inkscape.org/namespaces/inkscape"
   version="1.1"
   x="0px"
   y="0px"
   viewBox="0 0 1000 1000"
   enable-background="new 0 0 1000 1000"
   xml:space="preserve"
   id="svg6"
   sodipodi:docname="icon.svg"
   inkscape:version="0.92.3 (2405546, 2018-03-11)"><metadata
   id="metadata12"><rdf:RDF><cc:Work
       rdf:about=""><dc:format>image/svg+xml</dc:format><dc:type
         rdf:resource="http://purl.org/dc/dcmitype/StillImage" /><dc:title></dc:title></cc:Work></rdf:RDF></metadata><defs
   id="defs10" /><sodipodi:namedview
   pagecolor="#ffffff"
   bordercolor="#666666"
   borderopacity="1"
   objecttolerance="10"
   gridtolerance="10"
   guidetolerance="10"
   inkscape:pageopacity="0"
   inkscape:pageshadow="2"
   inkscape:window-width="1920"
   inkscape:window-height="1001"
   id="namedview8"
   showgrid="false"
   inkscape:zoom="0.7633125"
   inkscape:cx="732.5391"
   inkscape:cy="500"
   inkscape:window-x="-9"
   inkscape:window-y="-9"
   inkscape:window-maximized="1"
   inkscape:current-layer="svg6" />
<g
   id="g4"
   style="fill:#ff6600"><path
     d="M 739.4,10 H 260.6 C 122.8,10 10,122.8 10,260.6 V 739.5 C 10,877.2 122.8,990 260.6,990 H 739.5 C 877.2,990 990,877.2 990,739.4 V 260.6 C 990,122.8 877.2,10 739.4,10 Z m -167,764.3 H 521.6 C 411.7,773.9 322.7,684.6 322.7,574.5 v -114 h -15 c -27.6,0 -49.9,-22.4 -49.9,-49.9 0,-27.6 22.4,-49.9 49.9,-49.9 h 15 v -63.3 c 0,-27.6 22.4,-49.9 49.9,-49.9 27.6,0 49.9,22.4 49.9,49.9 v 63.3 H 534 c 27.6,0 49.9,22.4 49.9,49.9 0,27.6 -15.7,49.9 -43.3,49.9 h -6.7 -111.3 v 114 c 0,55.2 44.7,99.9 99.9,99.9 h 49.9 c 27.6,0 49.9,22.4 49.9,49.9 0.1,27.6 -22.3,50 -49.9,50 z M 659,392.2 c -9.2,0 -16.6,-7.5 -16.6,-16.6 0,-27.6 -22.3,-49.9 -49.9,-49.9 0,0 0,0 0,0 -9.2,0 -16.6,-7.5 -16.6,-16.6 0,-9.2 7.5,-16.6 16.6,-16.6 46,0 83.2,37.3 83.2,83.2 -0.1,9.1 -7.5,16.5 -16.7,16.5 z m 66.6,0 c -9.2,0 -16.6,-7.5 -16.6,-16.6 0,-64.4 -52.2,-116.5 -116.5,-116.5 -9.2,0 -16.6,-7.5 -16.6,-16.6 0,-9.2 7.5,-16.6 16.6,-16.6 82.7,0 149.8,67.1 149.8,149.8 -0.1,9.1 -7.5,16.5 -16.7,16.5 z"
     id="path2"
     inkscape:connector-curvature="0"
     style="fill:#ff6600" /></g>
</svg>