<?xml version="1.0" encoding="UTF-8" standalone="no"?>
<svg
   version="1.1"
   x="0px"
   y="0px"
   viewBox="0 0 90.449997 56.515999"
   enable-background="new 0 0 100 100"
   xml:space="preserve"
   id="svg79"
   sodipodi:docname="noun-garage-door-1587027.svg"
   width="90.449997"
   height="56.515999"
   inkscape:version="1.1.2 (0a00cf5339, 2022-02-04)"
   xmlns:inkscape="http://www.inkscape.org/namespaces/inkscape"
   xmlns:sodipodi="http://sodipodi.sourceforge.net/DTD/sodipodi-0.dtd"
   xmlns="http://www.w3.org/2000/svg"
   xmlns:svg="http://www.w3.org/2000/svg"><defs
     id="defs83" /><sodipodi:namedview
     id="namedview81"
     pagecolor="#ffffff"
     bordercolor="#666666"
     borderopacity="1.0"
     inkscape:pageshadow="2"
     inkscape:pageopacity="0.0"
     inkscape:pagecheckerboard="0"
     showgrid="false"
     fit-margin-top="0"
     fit-margin-left="0"
     fit-margin-right="0"
     fit-margin-bottom="0"
     inkscape:zoom="5.7616184"
     inkscape:cx="16.575204"
     inkscape:cy="19.786107"
     inkscape:window-width="1916"
     inkscape:window-height="1032"
     inkscape:window-x="0"
     inkscape:window-y="0"
     inkscape:window-maximized="1"
     inkscape:current-layer="svg79" /><path
     d="m 6.5763426,20.391807 v 5.508 0.867 h 0.99 0.402 17.3120004 c 0.006,0 0.01,0.002 0.016,0.003 0.004,-0.001 0.008,-0.003 0.012,-0.003 h 1.174 0.402 17.314 c 0.004,0 0.008,0.002 0.014,0.003 0.004,-0.001 0.01,-0.003 0.014,-0.003 h 1.174 0.402 17.312 c 0.006,0 0.01,0.002 0.016,0.003 0.004,-0.001 0.008,-0.003 0.012,-0.003 h 1.174 0.402 17.314 c 0.004,0 0.008,0.002 0.014,0.003 0.004,-0.001 0.008,-0.003 0.014,-0.003 h 0.963 v -0.867 -5.508 -0.867 h -0.99 -0.402 -17.314 c -0.004,0 -0.008,-0.003 -0.014,-0.003 -0.004,0 -0.008,0.003 -0.014,0.003 h -1.174 -0.402 -17.312 c -0.006,0 -0.01,-0.003 -0.014,-0.003 -0.004,0 -0.01,0.003 -0.014,0.003 h -1.174 -0.402 -17.314 c -0.004,0 -0.008,-0.003 -0.014,-0.003 -0.004,0 -0.008,0.003 -0.012,0.003 h -1.176 -0.4 -17.3140004 c -0.004,0 -0.01,-0.003 -0.014,-0.003 -0.004,0 -0.01,0.003 -0.014,0.003 h -0.963 z"
     id="path63" /><path
     d="m 6.5763426,28.079807 v 5.508 0.867 h 0.99 0.402 17.3120004 c 0.006,0 0.01,0.002 0.016,0.002 0.004,0 0.008,-0.002 0.012,-0.002 h 1.174 0.402 17.314 c 0.004,0 0.008,0.002 0.014,0.002 0.004,0 0.01,-0.002 0.014,-0.002 h 1.174 0.402 17.312 c 0.006,0 0.01,0.002 0.016,0.002 0.004,0 0.008,-0.002 0.012,-0.002 h 1.174 0.402 17.314 c 0.004,0 0.008,0.002 0.014,0.002 0.004,0 0.008,-0.002 0.014,-0.002 h 0.963 v -0.867 -5.508 -0.867 h -0.99 -0.402 -17.314 c -0.004,0 -0.008,-0.003 -0.014,-0.004 -0.004,0.001 -0.008,0.004 -0.014,0.004 h -1.174 -0.402 -17.312 c -0.006,0 -0.01,-0.003 -0.014,-0.004 -0.004,0.001 -0.01,0.004 -0.014,0.004 h -1.174 -0.402 -17.314 c -0.004,0 -0.008,-0.003 -0.014,-0.004 -0.004,0.001 -0.008,0.004 -0.012,0.004 h -1.176 -0.4 -17.3140004 c -0.004,0 -0.01,-0.003 -0.014,-0.004 -0.004,0.001 -0.01,0.004 -0.014,0.004 h -0.963 z"
     id="path65" /><path
     d="m 6.5763426,35.764807 v 5.508 0.867 h 0.99 0.402 17.3120004 c 0.006,0 0.01,0.002 0.016,0.004 0.004,-0.002 0.008,-0.004 0.012,-0.004 h 1.174 0.402 17.314 c 0.004,0 0.008,0.002 0.014,0.004 0.004,-0.002 0.01,-0.004 0.014,-0.004 h 1.174 0.402 17.312 c 0.006,0 0.01,0.002 0.016,0.004 0.004,-0.002 0.008,-0.004 0.012,-0.004 h 1.174 0.402 17.314 c 0.004,0 0.008,0.002 0.014,0.004 0.004,-0.002 0.008,-0.004 0.014,-0.004 h 0.963 v -0.867 -5.508 -0.867 h -0.99 -0.402 -17.314 c -0.004,0 -0.008,-0.002 -0.014,-0.002 -0.004,0 -0.008,0.002 -0.014,0.002 h -1.174 -0.402 -17.312 c -0.006,0 -0.01,-0.002 -0.014,-0.002 -0.004,0 -0.01,0.002 -0.014,0.002 h -1.174 -0.402 -17.314 c -0.004,0 -0.008,-0.002 -0.014,-0.002 -0.004,0 -0.008,0.002 -0.012,0.002 h -1.176 -0.4 -17.3140004 c -0.004,0 -0.01,-0.002 -0.014,-0.002 -0.004,0 -0.01,0.002 -0.014,0.002 h -0.963 z"
     id="path67" /><path
     d="m 64.317343,49.451807 h 17.717 0.99 v -0.835 -5.221 -0.811 h -0.99 -0.426 -17.291 c -0.004,0 -0.01,-0.002 -0.014,-0.004 -0.006,0.002 -0.01,0.004 -0.016,0.004 h -1.172 -0.424 -17.29 c -0.006,0 -0.01,-0.002 -0.016,-0.004 -0.004,0.002 -0.008,0.004 -0.014,0.004 h -1.172 -0.424 -17.292 c -0.004,0 -0.008,-0.002 -0.014,-0.004 -0.006,0.002 -0.01,0.004 -0.014,0.004 h -1.174 -0.424 -17.2900004 c -0.004,0 -0.01,-0.002 -0.014,-0.004 -0.006,0.002 -0.01,0.004 -0.016,0.004 h -0.961 v 0.811 5.221 0.835 h 0.99 17.7150004 1.201 17.717 1.201 17.715 z"
     id="path69" /><path
     d="M 7.9713426,19.079807 H 25.282343 c 0.006,0 0.01,0.003 0.016,0.003 0.004,0 0.008,-0.003 0.012,-0.003 h 1.174 0.404 17.312 c 0.004,0 0.008,0.003 0.014,0.003 0.004,0 0.01,-0.003 0.014,-0.003 h 1.174 0.404 17.311 c 0.006,0 0.01,0.003 0.016,0.003 0.004,0 0.008,-0.003 0.012,-0.003 h 1.174 0.404 17.312 c 0.004,0 0.008,0.003 0.014,0.003 0.004,0 0.008,-0.003 0.014,-0.003 h 0.963 v -0.863 -5.49 -0.889 h -0.99 -17.719 -1.201 -17.715 -1.201 -17.717 -1.201 -17.7150004 -0.99 v 0.889 5.49 0.863 h 0.99 z"
     id="path71" /><path
     d="m 83.545343,11.528807 v 38.324 h 0.98 v -39.515 H 5.0753426 v 39.516 h 0.98 v -38.325 c 0,-0.116 0.094,-0.21 0.211,-0.21 H 83.334343 c 0.115,0 0.211,0.094 0.211,0.21 z"
     id="path73" /></svg>
